<?xml version="1.0" standalone="no"?>
<!DOCTYPE svg PUBLIC "-//W3C//DTD SVG 20010904//EN"
 "http://www.w3.org/TR/2001/REC-SVG-20010904/DTD/svg10.dtd">
<svg version="1.0" xmlns="http://www.w3.org/2000/svg"
 width="583.000000pt" height="134.000000pt" viewBox="0 0 583.000000 134.000000"
 preserveAspectRatio="xMidYMid meet">

<g transform="translate(0.000000,134.000000) scale(0.100000,-0.100000)"
fill="#000000" stroke="none">
<path d="M1160 1220 c-47 -11 -90 -61 -90 -104 0 -53 31 -83 113 -107 141 -40
169 -65 130 -118 -44 -59 -162 -47 -195 19 -10 19 -22 35 -28 34 -5 -1 -16 -2
-24 -2 -19 -2 -5 -55 21 -85 46 -51 174 -65 234 -24 46 31 68 91 48 132 -20
40 -56 64 -124 81 -93 23 -115 34 -122 62 -15 61 101 98 161 51 14 -11 26 -29
26 -40 0 -20 8 -23 34 -13 45 17 -10 96 -78 113 -50 12 -56 12 -106 1z"/>
<path d="M1966 1216 c-88 -33 -132 -112 -123 -221 6 -80 39 -135 97 -165 43
-22 121 -27 167 -9 113 42 156 208 83 322 -44 70 -144 103 -224 73z m140 -55
c42 -25 64 -77 64 -148 0 -101 -63 -168 -149 -160 -56 6 -92 33 -115 89 -35
85 -1 200 68 228 37 15 100 11 132 -9z"/>
<path d="M3410 1218 c-87 -25 -133 -93 -133 -199 0 -129 58 -200 169 -207 94
-6 169 40 176 109 5 40 -33 37 -56 -5 -48 -89 -175 -85 -216 6 -23 51 -26 135
-6 181 20 48 50 69 106 75 56 5 93 -12 112 -54 13 -29 51 -30 56 -1 5 25 -57
83 -103 96 -47 13 -58 13 -105 -1z"/>
<path d="M4003 1221 c-87 -22 -137 -97 -138 -206 0 -58 5 -78 27 -115 71 -122
259 -122 328 1 33 59 35 164 4 224 -39 75 -136 117 -221 96z m124 -61 c46 -28
67 -73 66 -147 -1 -126 -96 -196 -199 -147 -51 24 -76 73 -76 148 0 104 50
166 137 166 22 0 54 -9 72 -20z"/>
<path d="M160 1015 l0 -205 25 0 25 0 1 173 1 172 57 -170 c52 -154 60 -170
82 -173 23 -2 27 6 78 155 30 87 58 162 62 168 5 5 9 -65 9 -158 l0 -167 25 0
25 0 0 205 0 205 -38 0 -37 0 -59 -170 c-32 -93 -60 -170 -61 -170 -2 0 -29
77 -60 170 l-57 170 -39 0 -39 0 0 -205z"/>
<path d="M650 1070 c0 -171 9 -208 62 -240 40 -24 135 -27 182 -5 60 29 70 61
74 238 l4 157 -25 0 -25 0 -4 -150 c-4 -131 -7 -153 -24 -177 -26 -35 -77 -48
-126 -34 -60 18 -68 45 -68 216 l0 145 -25 0 -25 0 0 -150z"/>
<path d="M1470 1015 l0 -205 150 0 150 0 0 25 0 25 -125 0 -125 0 0 70 0 70
110 0 110 0 0 25 0 25 -110 0 -110 0 0 60 0 60 120 0 120 0 0 25 0 25 -145 0
-145 0 0 -205z"/>
<path d="M2470 1015 l0 -205 25 0 25 0 2 163 3 162 109 -162 c89 -133 113
-163 133 -163 l23 0 0 205 0 205 -25 0 -24 0 -3 -154 -3 -154 -104 154 c-94
137 -108 154 -133 154 l-28 0 0 -205z"/>
<path d="M3010 1217 c0 -1 -34 -90 -75 -197 -41 -107 -75 -198 -75 -203 0 -5
12 -7 26 -5 23 3 30 12 48 63 l21 60 86 3 86 3 24 -63 c21 -54 29 -63 52 -66
15 -2 27 1 27 5 0 7 -52 136 -157 391 -4 10 -63 19 -63 9z m65 -139 c17 -45
32 -86 33 -90 2 -4 -28 -8 -66 -8 l-70 0 32 90 c17 49 33 90 36 90 3 0 19 -37
35 -82z"/>
<path d="M3720 1015 l0 -205 30 0 30 0 0 205 0 205 -30 0 -30 0 0 -205z"/>
<path d="M4330 1015 l0 -205 25 0 25 0 2 163 3 162 109 -162 c89 -133 113
-163 133 -163 l23 0 0 205 0 205 -25 0 -24 0 -3 -154 -3 -154 -104 154 c-94
137 -108 154 -133 154 l-28 0 0 -205z"/>
<path d="M4867 1213 c-12 -21 -147 -381 -147 -391 0 -7 11 -12 24 -12 20 0 27
10 47 65 l23 66 85 -3 85 -3 25 -62 c22 -58 27 -63 54 -63 24 0 28 3 23 18 -4
9 -41 101 -83 205 -74 179 -78 187 -104 187 -15 0 -30 -3 -32 -7z m78 -170
l24 -63 -71 0 c-63 0 -69 2 -63 18 4 9 19 52 34 95 l26 78 13 -33 c8 -17 24
-60 37 -95z"/>
<path d="M5150 1015 l0 -205 125 0 125 0 0 25 0 25 -100 0 -100 0 0 180 0 180
-25 0 -25 0 0 -205z"/>
<path d="M3267 589 c-53 -12 -84 -36 -111 -83 -50 -88 -41 -218 20 -285 78
-88 248 -78 311 17 32 48 46 126 33 190 -12 66 -21 82 -64 120 -29 25 -114 55
-144 51 -4 -1 -24 -5 -45 -10z m125 -86 c33 -29 48 -69 48 -123 0 -97 -41
-150 -115 -150 -76 0 -115 51 -115 150 0 74 20 116 63 136 39 17 92 11 119
-13z"/>
<path d="M1447 584 c-4 -4 -7 -99 -7 -211 l0 -203 40 0 39 0 3 77 3 78 84 5
c78 6 85 8 112 37 53 60 47 152 -14 197 -24 18 -45 21 -140 24 -62 2 -115 0
-120 -4z m201 -80 c15 -10 22 -25 22 -49 0 -42 -20 -55 -92 -58 l-53 -2 -3 63
-3 62 53 0 c32 0 62 -6 76 -16z"/>
<path d="M1847 583 c-4 -3 -7 -98 -7 -210 l0 -203 40 0 40 0 0 85 0 85 29 0
c48 0 57 -8 112 -91 l52 -79 48 0 49 0 -37 61 c-21 34 -51 74 -67 91 -16 16
-27 30 -25 32 2 1 19 8 37 16 90 35 79 183 -15 209 -42 12 -246 15 -256 4z
m240 -89 c15 -24 15 -29 2 -53 -14 -24 -20 -26 -92 -29 l-77 -3 0 56 0 55 75
0 c69 0 76 -2 92 -26z"/>
<path d="M2393 578 c-6 -7 -16 -30 -23 -51 -6 -20 -38 -106 -71 -189 -32 -84
-59 -156 -59 -161 0 -4 19 -7 42 -5 39 3 42 5 56 46 l14 43 86 -3 87 -3 15
-42 c14 -42 16 -43 57 -43 24 0 43 1 43 3 0 4 -117 306 -145 375 -16 39 -20
42 -55 42 -21 0 -42 -6 -47 -12z m77 -172 c11 -33 20 -63 20 -68 0 -4 -25 -8
-55 -8 -30 0 -55 2 -55 3 0 4 34 104 45 136 8 22 22 2 45 -63z"/>
<path d="M2710 380 l0 -210 113 0 c136 0 170 14 206 83 33 65 33 178 0 245
-36 71 -84 92 -216 92 l-103 0 0 -210z m211 130 c32 -18 49 -64 49 -137 0 -93
-22 -129 -83 -138 -95 -14 -92 -19 -95 143 l-3 142 56 0 c31 0 65 -5 76 -10z"/>
<path d="M160 360 l0 -200 100 0 c119 0 156 12 196 66 25 32 29 48 33 116 4
101 -16 158 -67 193 -34 23 -46 25 -149 25 l-113 0 0 -200z m210 147 c44 -22
70 -73 70 -139 0 -70 -19 -120 -54 -143 -14 -10 -56 -19 -100 -22 l-76 -6 0
162 0 161 68 0 c37 0 78 -6 92 -13z"/>
<path d="M580 360 l0 -200 155 0 c148 0 155 1 155 20 0 19 -7 20 -125 20
l-125 0 0 75 0 75 110 0 c103 0 110 1 110 20 0 19 -7 20 -110 20 l-110 0 0 65
0 65 120 0 c113 0 120 1 120 20 0 19 -7 20 -150 20 l-150 0 0 -200z"/>
<path d="M970 360 l0 -200 130 0 c123 0 130 1 130 20 0 18 -8 20 -102 22
l-103 3 -3 178 -2 177 -25 0 -25 0 0 -200z"/>
</g>
</svg>
